<svg width="215" height="215" viewBox="0 0 215 215" fill="none" xmlns="http://www.w3.org/2000/svg">
    <circle opacity="0.2" cx="107.294" cy="107.647" r="106.353" stroke="white" stroke-width="0.941176" />
    <g filter="url(#filter0_b)">
    <rect x="83.7646" y="84.1938" width="47.0588" height="47.0588" rx="23.5294" fill="white" />
    <path d="M97.8826 107.723H116.706" stroke="black" stroke-width="1.41176" />
    <path d="M107.294 117.135L107.294 98.3117" stroke="black" stroke-width="1.41176" />
    </g>
    <path
    d="M37.2889 41.9354L38.8207 43.4809L38.3661 43.9315L34.5817 40.1132L36.0524 38.6556C36.4837 38.228 36.9125 37.9974 37.3386 37.9638C37.7646 37.9302 38.1579 38.0953 38.5183 38.4589C38.7869 38.7299 38.9363 39.0411 38.9667 39.3926C38.9935 39.7406 38.9033 40.0774 38.696 40.403L41.3449 40.9792L40.8261 41.4933L38.305 40.9284L37.2889 41.9354ZM35.4179 40.0477L36.9073 41.5504L37.8966 40.5698C38.189 40.2801 38.3482 39.9951 38.3743 39.7148C38.4039 39.4309 38.2969 39.166 38.0531 38.92C37.8163 38.6812 37.5559 38.5753 37.2718 38.6024C36.9842 38.626 36.696 38.7809 36.4072 39.0671L35.4179 40.0477Z"
    fill="white"
    />
    <path
    d="M48.4193 34.2227L48.7571 34.6467L45.9131 36.9132L42.5626 32.7091L45.4007 30.4472L45.7385 30.8712L43.4009 32.7342L44.5694 34.2003L46.6479 32.5438L46.9905 32.9736L44.912 34.6301L46.0758 36.0904L48.4193 34.2227Z"
    fill="white"
    />
    <path
    d="M56.0212 29.6856C55.4064 30.0752 54.7691 30.176 54.1092 29.988C53.4508 29.7931 52.9 29.3459 52.4567 28.6463C52.016 27.9509 51.8537 27.2634 51.9697 26.5838C52.0857 25.9041 52.4533 25.3681 53.0723 24.9758C53.5556 24.6695 54.0279 24.5426 54.489 24.5951C54.9543 24.6449 55.3691 24.8634 55.7334 25.2506L55.1864 25.5972C54.9347 25.3407 54.6519 25.199 54.3378 25.1723C54.021 25.1413 53.6972 25.2305 53.3665 25.4401C52.8916 25.741 52.6239 26.1484 52.5632 26.6623C52.4999 27.1719 52.6509 27.715 53.0163 28.2916C53.3844 28.8725 53.8116 29.2466 54.2979 29.4138C54.7843 29.581 55.2627 29.5155 55.7334 29.2173C56.1234 28.9701 56.3716 28.6583 56.4778 28.282C56.5855 27.8988 56.5252 27.527 56.2968 27.1666L56.1477 26.9312L55.0729 27.6124L54.7988 27.1799L56.4079 26.1602L57.8427 28.4244L57.4102 28.6984L56.8797 27.9738C56.9454 28.265 56.8957 28.5758 56.7307 28.9062C56.5672 29.2296 56.3307 29.4894 56.0212 29.6856Z"
    fill="white"
    />
    <path
    d="M66.0734 23.422L66.3125 23.9086L63.0486 25.5126L60.6775 20.6877L63.9346 19.087L64.1737 19.5736L61.491 20.892L62.3179 22.5746L64.7033 21.4023L64.9457 21.8956L62.5603 23.0679L63.3839 24.7438L66.0734 23.422Z"
    fill="white"
    />
    <path
    d="M70.6202 16.1914L71.3717 15.9223L75.5191 18.996L75.5333 18.9909L74.0867 14.9503L74.675 14.7396L76.4871 19.801L75.92 20.004L71.4964 16.7174L71.4822 16.7225L73.0278 21.0396L72.4324 21.2527L70.6202 16.1914Z"
    fill="white"
    />
    <path
    d="M86.5532 16.452L86.6773 16.9797L83.137 17.8118L81.907 12.5784L85.4399 11.7481L85.5639 12.2758L82.6541 12.9597L83.083 14.7848L85.6704 14.1767L85.7961 14.7118L83.2088 15.3199L83.636 17.1376L86.5532 16.452Z"
    fill="white"
    />
    <path
    d="M93.6075 13.5356L93.874 15.6953L93.2389 15.7736L92.5804 10.4381L94.6354 10.1845C95.2382 10.1101 95.7184 10.1899 96.076 10.424C96.4337 10.658 96.6438 11.0291 96.7066 11.5372C96.7533 11.9159 96.6812 12.2535 96.4902 12.5502C96.2986 12.8419 96.0212 13.0532 95.658 13.184L97.4012 15.26L96.6763 15.3494L95.0273 13.3604L93.6075 13.5356ZM93.282 10.8978L93.5411 12.9976L94.9236 12.827C95.3321 12.7766 95.6324 12.6485 95.8245 12.4427C96.0215 12.2363 96.0989 11.9612 96.0564 11.6175C96.0152 11.2837 95.874 11.0407 95.6326 10.8884C95.3907 10.7311 95.068 10.6774 94.6644 10.7272L93.282 10.8978Z"
    fill="white"
    />
    <path
    d="M108.02 14.77L107.342 14.78L106.726 13.2906L104.151 13.3285L103.578 14.8355L102.931 14.845L105.027 9.43753L105.757 9.42677L108.02 14.77ZM105.406 10.0796L105.383 10.0799L104.354 12.7909L106.507 12.7591L105.406 10.0796Z"
    fill="white"
    />
    <path
    d="M116.048 15.2221L115.404 15.1618L115.854 10.3489L113.86 10.1623L113.91 9.62254L118.551 10.0568L118.5 10.5966L116.499 10.4093L116.048 15.2221Z"
    fill="white"
    />
    <path d="M124.671 16.4396L124.034 16.3194L125.032 11.0368L125.668 11.1569L124.671 16.4396Z" fill="white" />
    <path
    d="M134.902 13.2566C135.601 13.4577 136.097 13.8691 136.388 14.4908C136.681 15.1077 136.713 15.8118 136.486 16.6029C136.258 17.3941 135.856 17.9757 135.279 18.3478C134.708 18.7164 134.071 18.7994 133.366 18.5969C132.662 18.3944 132.164 17.9847 131.871 17.3678C131.584 16.7475 131.555 16.0418 131.782 15.2506C132.01 14.4594 132.411 13.8802 132.987 13.513C133.564 13.1409 134.202 13.0555 134.902 13.2566ZM133.518 18.0687C134.054 18.2226 134.526 18.1521 134.935 17.8569C135.348 17.5632 135.651 17.0835 135.842 16.4178C136.032 15.7568 136.03 15.1921 135.835 14.7236C135.647 14.2517 135.285 13.9388 134.75 13.7848C134.215 13.6309 133.739 13.7032 133.324 14.0017C132.911 14.2954 132.609 14.7728 132.419 15.4337C132.228 16.0994 132.227 16.6658 132.416 17.1329C132.611 17.6014 132.978 17.9133 133.518 18.0687Z"
    fill="white"
    />
    <path
    d="M143.222 16.1062L143.959 16.4118L144.966 21.4749L144.98 21.4807L146.623 17.516L147.2 17.7553L145.142 22.7216L144.586 22.491L143.517 17.0845L143.503 17.0788L141.748 21.3147L141.163 21.0726L143.222 16.1062Z"
    fill="white"
    />
    <path
    d="M160.08 30.8816L157.101 28.9727L160 24.4459L160.546 24.7952L157.938 28.8655L160.373 30.4251L160.08 30.8816Z"
    fill="white"
    />
    <path
    d="M168.361 37.0822L167.831 36.6598L168.3 35.1173L166.286 33.5125L164.887 34.3135L164.381 33.9099L169.433 31.0619L170.004 31.5171L168.361 37.0822ZM169.318 31.7983L169.3 31.7842L166.784 33.2258L168.468 34.5679L169.318 31.7983Z"
    fill="white"
    />
    <path
    d="M176.596 42.704C176.257 43.0463 175.879 43.1953 175.464 43.151C175.048 43.1067 174.625 42.8708 174.193 42.4432L172.68 40.9432L176.464 37.1249L177.807 38.4553C178.238 38.8828 178.481 39.3006 178.536 39.7085C178.595 40.1129 178.462 40.4791 178.137 40.8071C177.964 40.9818 177.739 41.091 177.462 41.1349C177.192 41.1787 176.951 41.1442 176.737 41.0316C176.913 41.3254 176.987 41.6215 176.96 41.9197C176.94 42.218 176.818 42.4794 176.596 42.704ZM176.548 37.9498L175.249 39.26L176.164 40.1663C176.442 40.4419 176.707 40.5952 176.959 40.626C177.219 40.6568 177.454 40.5652 177.666 40.3513C177.878 40.1374 177.968 39.9045 177.935 39.6526C177.901 39.4008 177.746 39.137 177.468 38.8614L176.548 37.9498ZM175.921 40.6359L174.894 39.6183L173.506 41.0194L174.543 42.0476C174.832 42.3339 175.115 42.4941 175.392 42.5284C175.669 42.5626 175.917 42.4692 176.136 42.2482C176.355 42.0271 176.446 41.7747 176.409 41.4909C176.373 41.2072 176.21 40.9221 175.921 40.6359Z"
    fill="white"
    />
    <defs>
    <filter
        id="filter0_b"
        x="71.5294"
        y="71.9586"
        width="71.5294"
        height="71.5294"
        filterUnits="userSpaceOnUse"
        color-interpolation-filters="sRGB"
    >
        <feFlood flood-opacity="0" result="BackgroundImageFix" />
        <feGaussianBlur in="BackgroundImage" stdDeviation="6.11765" />
        <feComposite in2="SourceAlpha" operator="in" result="effect1_backgroundBlur" />
        <feBlend mode="normal" in="SourceGraphic" in2="effect1_backgroundBlur" result="shape" />
    </filter>
    </defs>
</svg>